<mxfile host="app.diagrams.net" modified="2023-05-11T22:59:39.175Z" agent="Mozilla/5.0 (X11; Ubuntu; Linux x86_64; rv:109.0) Gecko/20100101 Firefox/112.0" etag="pJ0_GFjJ4gb6DyctwQCb" version="21.2.9" type="device">
  <diagram name="Page-1" id="Noikhsf60OGfrrsC1boE">
    <mxGraphModel dx="2714" dy="1041" grid="1" gridSize="10" guides="1" tooltips="1" connect="1" arrows="1" fold="1" page="1" pageScale="1" pageWidth="827" pageHeight="1169" math="0" shadow="0">
      <root>
        <mxCell id="0" />
        <mxCell id="1" parent="0" />
        <mxCell id="HUBfH9Spj7RCQt53mOIj-1" value="&lt;div align=&quot;left&quot;&gt;Étape 0 - Évaluation des besoins&lt;/div&gt;" style="rounded=0;whiteSpace=wrap;html=1;align=left;" vertex="1" parent="1">
          <mxGeometry x="264" y="230" width="326" height="60" as="geometry" />
        </mxCell>
        <mxCell id="HUBfH9Spj7RCQt53mOIj-2" value="&lt;div align=&quot;left&quot;&gt;Étape 1 - Préparation du projet&lt;/div&gt;&lt;div align=&quot;left&quot;&gt;a) Organisation du projet&lt;/div&gt;&lt;div align=&quot;left&quot;&gt;b) Définir les objectifs&lt;/div&gt;&lt;div align=&quot;left&quot;&gt;c) Créer un plan détaillé&lt;br&gt;&lt;/div&gt;" style="rounded=0;whiteSpace=wrap;html=1;align=left;" vertex="1" parent="1">
          <mxGeometry x="264" y="310" width="326" height="60" as="geometry" />
        </mxCell>
        <mxCell id="HUBfH9Spj7RCQt53mOIj-3" value="&lt;div align=&quot;left&quot;&gt;Étape 2 - Dessin d&#39;affaires&lt;/div&gt;&lt;div align=&quot;left&quot;&gt;a) Analyser les processus d&#39;affaires actuels&lt;/div&gt;&lt;div align=&quot;left&quot;&gt;b) Maîtrise du système ERP&lt;/div&gt;&lt;div align=&quot;left&quot;&gt;c) Revue des processus&lt;br&gt;&lt;/div&gt;" style="rounded=0;whiteSpace=wrap;html=1;align=left;" vertex="1" parent="1">
          <mxGeometry x="264" y="390" width="326" height="60" as="geometry" />
        </mxCell>
        <mxCell id="HUBfH9Spj7RCQt53mOIj-4" value="&lt;div align=&quot;left&quot;&gt;Étape 3 - Réalisation&lt;/div&gt;&lt;div align=&quot;left&quot;&gt;a) Développement technique&lt;/div&gt;&lt;div align=&quot;left&quot;&gt;b) Étude pilote&lt;br&gt;&lt;/div&gt;" style="rounded=0;whiteSpace=wrap;html=1;align=left;" vertex="1" parent="1">
          <mxGeometry x="264" y="470" width="326" height="60" as="geometry" />
        </mxCell>
        <mxCell id="HUBfH9Spj7RCQt53mOIj-5" value="&lt;div align=&quot;left&quot;&gt;Étape 4 - Préparation finale&lt;/div&gt;&lt;div align=&quot;left&quot;&gt;a) Réglages et tests&lt;/div&gt;&lt;div align=&quot;left&quot;&gt;b) Éduquer et former la masse critique&lt;br&gt;&lt;/div&gt;" style="rounded=0;whiteSpace=wrap;html=1;align=left;" vertex="1" parent="1">
          <mxGeometry x="264" y="550" width="326" height="60" as="geometry" />
        </mxCell>
        <mxCell id="HUBfH9Spj7RCQt53mOIj-6" value="&lt;div align=&quot;left&quot;&gt;Étape 5 - Mise en production et support&lt;/div&gt;&lt;div align=&quot;left&quot;&gt;a) Déploiement des modules ERP&lt;/div&gt;&lt;div align=&quot;left&quot;&gt;b) Améliorer et élargir les systèmes ERP de façon continue.&lt;br&gt;&lt;/div&gt;" style="rounded=0;whiteSpace=wrap;html=1;align=left;" vertex="1" parent="1">
          <mxGeometry x="264" y="630" width="326" height="60" as="geometry" />
        </mxCell>
        <mxCell id="HUBfH9Spj7RCQt53mOIj-7" value="Gestion du changement" style="rounded=0;whiteSpace=wrap;html=1;" vertex="1" parent="1">
          <mxGeometry x="170" y="230" width="80" height="460" as="geometry" />
        </mxCell>
        <mxCell id="HUBfH9Spj7RCQt53mOIj-9" value="Développement d&#39;affaires" style="rounded=0;whiteSpace=wrap;html=1;" vertex="1" parent="1">
          <mxGeometry x="607" y="230" width="93" height="460" as="geometry" />
        </mxCell>
      </root>
    </mxGraphModel>
  </diagram>
</mxfile>
